<svg width="22" height="11" viewBox="0 0 22 11" fill="none" xmlns="http://www.w3.org/2000/svg">
<path d="M20.9688 5.5H3.4375V1.96429C3.4375 1.53104 4.05432 1.17857 4.8125 1.17857C5.30024 1.17857 5.72911 1.32454 5.9733 1.54393C5.26466 2.16285 5.34222 3.00673 6.26712 3.58273C6.08768 3.69846 6.09434 3.87531 6.28822 3.9861L6.77437 4.2639C6.97572 4.37896 7.3022 4.37896 7.50359 4.2639L11.5869 1.9306C11.7883 1.81554 11.7883 1.62898 11.5869 1.5139L11.1008 1.2361C10.9069 1.12531 10.5974 1.12153 10.3949 1.22404C9.62363 0.819672 8.57755 0.697886 7.63722 0.846779C7.01598 0.335574 5.98177 0 4.8125 0C2.91706 0 1.375 0.881179 1.375 1.96429V5.5H1.03125C0.461699 5.5 0 5.76383 0 6.08929V6.48214C0 6.8076 0.461699 7.07143 1.03125 7.07143H1.375V7.85714C1.375 8.5552 1.90618 9.18227 2.75 9.61388V10.4107C2.75 10.7362 3.2117 11 3.78125 11H4.46875C5.0383 11 5.5 10.7362 5.5 10.4107V10.2143H16.5V10.4107C16.5 10.7362 16.9617 11 17.5312 11H18.2188C18.7883 11 19.25 10.7362 19.25 10.4107V9.61388C20.0938 9.18227 20.625 8.5552 20.625 7.85714V7.07143H20.9688C21.5383 7.07143 22 6.8076 22 6.48214V6.08929C22 5.76383 21.5383 5.5 20.9688 5.5Z" fill="black"/>
</svg>
