<svg width="22" height="11" viewBox="0 0 22 11" fill="none" xmlns="http://www.w3.org/2000/svg">
<path d="M6.05 5.5C7.56628 5.5 8.8 4.4719 8.8 3.20833C8.8 1.94477 7.56628 0.916667 6.05 0.916667C4.53372 0.916667 3.3 1.94477 3.3 3.20833C3.3 4.4719 4.53372 5.5 6.05 5.5ZM18.15 1.83333H10.45C10.1461 1.83333 9.9 2.03844 9.9 2.29167V6.41667H2.2V0.458333C2.2 0.205104 1.95388 0 1.65 0H0.55C0.246125 0 0 0.205104 0 0.458333V10.5417C0 10.7949 0.246125 11 0.55 11H1.65C1.95388 11 2.2 10.7949 2.2 10.5417V9.16667H19.8V10.5417C19.8 10.7949 20.0461 11 20.35 11H21.45C21.7539 11 22 10.7949 22 10.5417V5.04167C22 3.26964 20.2764 1.83333 18.15 1.83333Z" fill="black"/>
</svg>
