<svg width="67" height="40" viewBox="0 0 67 40" fill="none" xmlns="http://www.w3.org/2000/svg">
<path d="M67 3.63636V40H4.1875V32.7273H0V0H58.625V3.63636H67ZM50.25 3.63636C50.25 4.14773 50.3591 4.62121 50.5771 5.05682C50.7952 5.49242 51.0897 5.87121 51.4604 6.19318C51.8312 6.51515 52.2783 6.7803 52.8018 6.98864C53.3252 7.19697 53.8704 7.29167 54.4375 7.27273V3.63636H50.25ZM4.1875 7.27273C4.77637 7.27273 5.32161 7.17803 5.82324 6.98864C6.32487 6.79924 6.76107 6.54356 7.13184 6.22159C7.5026 5.89962 7.80794 5.51136 8.04785 5.05682C8.28776 4.60227 8.39681 4.12879 8.375 3.63636H4.1875V7.27273ZM4.1875 21.8182C5.34342 21.8182 6.42301 22.0076 7.42627 22.3864C8.42952 22.7652 9.32373 23.286 10.1089 23.9489C10.894 24.6117 11.4938 25.3788 11.9082 26.25C12.3226 27.1212 12.5407 28.0682 12.5625 29.0909H46.0625C46.0625 28.0871 46.2806 27.1496 46.7168 26.2784C47.153 25.4072 47.7528 24.6307 48.5161 23.9489C49.2795 23.267 50.1628 22.7462 51.166 22.3864C52.1693 22.0265 53.2598 21.8371 54.4375 21.8182V10.9091C53.2816 10.9091 52.202 10.7197 51.1987 10.3409C50.1955 9.96212 49.3013 9.44129 48.5161 8.77841C47.731 8.11553 47.1312 7.34848 46.7168 6.47727C46.3024 5.60606 46.0843 4.65909 46.0625 3.63636H12.5625C12.5625 4.64015 12.3444 5.57765 11.9082 6.44886C11.472 7.32008 10.8722 8.09659 10.1089 8.77841C9.34554 9.46023 8.46224 9.98106 7.45898 10.3409C6.45573 10.7008 5.36523 10.8902 4.1875 10.9091V21.8182ZM54.4375 25.4545C53.8486 25.4545 53.3034 25.5492 52.8018 25.7386C52.3001 25.928 51.8639 26.1837 51.4932 26.5057C51.1224 26.8277 50.8171 27.2159 50.5771 27.6705C50.3372 28.125 50.2282 28.5985 50.25 29.0909H54.4375V25.4545ZM4.1875 29.0909H8.375C8.375 28.5795 8.26595 28.1061 8.04785 27.6705C7.82975 27.2348 7.53532 26.8561 7.16455 26.5341C6.79378 26.2121 6.34668 25.947 5.82324 25.7386C5.2998 25.5303 4.75456 25.4356 4.1875 25.4545V29.0909ZM62.8125 7.27273H58.625V32.7273H8.375V36.3636H62.8125V7.27273ZM14.6562 18.1818C14.0892 18.1818 13.5985 18.0019 13.1841 17.642C12.7697 17.2822 12.5625 16.8561 12.5625 16.3636C12.5625 15.8712 12.7697 15.4451 13.1841 15.0852C13.5985 14.7254 14.0892 14.5455 14.6562 14.5455C15.2233 14.5455 15.714 14.7254 16.1284 15.0852C16.5428 15.4451 16.75 15.8712 16.75 16.3636C16.75 16.8561 16.5428 17.2822 16.1284 17.642C15.714 18.0019 15.2233 18.1818 14.6562 18.1818ZM43.9688 18.1818C43.4017 18.1818 42.911 18.0019 42.4966 17.642C42.0822 17.2822 41.875 16.8561 41.875 16.3636C41.875 15.8712 42.0822 15.4451 42.4966 15.0852C42.911 14.7254 43.4017 14.5455 43.9688 14.5455C44.5358 14.5455 45.0265 14.7254 45.4409 15.0852C45.8553 15.4451 46.0625 15.8712 46.0625 16.3636C46.0625 16.8561 45.8553 17.2822 45.4409 17.642C45.0265 18.0019 44.5358 18.1818 43.9688 18.1818ZM29.3125 25.4545C28.1566 25.4545 27.077 25.2652 26.0737 24.8864C25.0705 24.5076 24.1763 23.9867 23.3911 23.3239C22.606 22.661 22.0062 21.8939 21.5918 21.0227C21.1774 20.1515 20.9593 19.2045 20.9375 18.1818V14.5455C20.9375 13.5417 21.1556 12.6042 21.5918 11.733C22.028 10.8617 22.6278 10.0852 23.3911 9.40341C24.1545 8.72159 25.0378 8.20076 26.041 7.84091C27.0443 7.48106 28.1348 7.29167 29.3125 7.27273C30.4684 7.27273 31.548 7.46212 32.5513 7.84091C33.5545 8.2197 34.4487 8.74053 35.2339 9.40341C36.019 10.0663 36.6188 10.8333 37.0332 11.7045C37.4476 12.5758 37.6657 13.5227 37.6875 14.5455V18.1818C37.6875 19.1856 37.4694 20.1231 37.0332 20.9943C36.597 21.8655 35.9972 22.642 35.2339 23.3239C34.4705 24.0057 33.5872 24.5265 32.584 24.8864C31.5807 25.2462 30.4902 25.4356 29.3125 25.4545ZM25.125 18.1818C25.125 18.6932 25.234 19.1667 25.4521 19.6023C25.6702 20.0379 25.9647 20.4167 26.3354 20.7386C26.7062 21.0606 27.1533 21.3258 27.6768 21.5341C28.2002 21.7424 28.7454 21.8371 29.3125 21.8182C29.9014 21.8182 30.4466 21.7235 30.9482 21.5341C31.4499 21.3447 31.8861 21.089 32.2568 20.767C32.6276 20.4451 32.9329 20.0568 33.1729 19.6023C33.4128 19.1477 33.5218 18.6742 33.5 18.1818V14.5455C33.5 14.0341 33.3909 13.5606 33.1729 13.125C32.9548 12.6894 32.6603 12.3106 32.2896 11.9886C31.9188 11.6667 31.4717 11.4015 30.9482 11.1932C30.4248 10.9848 29.8796 10.8902 29.3125 10.9091C28.7236 10.9091 28.1784 11.0038 27.6768 11.1932C27.1751 11.3826 26.7389 11.6383 26.3682 11.9602C25.9974 12.2822 25.6921 12.6705 25.4521 13.125C25.2122 13.5795 25.1032 14.053 25.125 14.5455V18.1818Z" fill="#222222"/>
</svg>
