<svg width="64" height="60" viewBox="0 0 64 60" fill="none" xmlns="http://www.w3.org/2000/svg">
<path d="M24.7753 43.0792C25.4011 43.3544 25.9934 43.6493 26.5521 43.9638C27.1109 44.2783 27.6585 44.642 28.1949 45.0547L25.4458 47.9443C24.2836 47.0794 22.9984 46.4209 21.5904 45.9688C20.1823 45.5167 18.7072 45.2906 17.165 45.2906C15.377 45.2906 13.7119 45.5855 12.1697 46.1752C10.6276 46.7649 9.26419 47.5708 8.07962 48.593C6.89506 49.6152 5.96752 50.8241 5.29701 52.2197C4.62651 53.6154 4.29125 55.0798 4.29125 56.6131H0C0 55.1781 0.223503 53.7923 0.670508 52.4556C1.11751 51.1189 1.7545 49.8609 2.58146 48.6815C3.40842 47.502 4.403 46.4406 5.56522 45.497C6.72743 44.5535 8.0461 43.7476 9.52122 43.0792C7.8673 41.9981 6.58216 40.6614 5.66579 39.0692C4.74943 37.477 4.29125 35.7766 4.29125 33.9682C4.29125 32.4153 4.62651 30.9509 5.29701 29.5749C5.96752 28.1989 6.88388 26.9998 8.0461 25.9776C9.20831 24.9555 10.5717 24.1397 12.1362 23.5303C13.7007 22.921 15.377 22.6261 17.165 22.6458C19.2212 22.6458 21.1545 23.0487 22.9649 23.8547C24.7753 24.6606 26.2951 25.7909 27.5244 27.2455C28.3737 25.7712 29.4577 24.4542 30.7763 23.2945C32.095 22.1347 33.5925 21.1813 35.2687 20.4344C33.6148 19.3532 32.3297 18.0166 31.4133 16.4243C30.4969 14.8321 30.0388 13.1318 30.0388 11.3233C30.0388 9.77045 30.374 8.306 31.0445 6.93001C31.715 5.55402 32.6314 4.35495 33.7936 3.33278C34.9558 2.31062 36.3192 1.49485 37.8837 0.885486C39.4482 0.276119 41.1245 -0.0187356 42.9125 0.000921422C44.6782 0.000921422 46.3433 0.295776 47.9078 0.885486C49.4723 1.4752 50.8357 2.28113 51.9979 3.3033C53.1601 4.32546 54.0877 5.53437 54.7805 6.93001C55.4734 8.32566 55.8086 9.7901 55.7863 11.3233C55.7863 13.1318 55.3281 14.8321 54.4117 16.4243C53.4954 18.0166 52.2102 19.3532 50.5563 20.4344C52.0091 21.083 53.3166 21.8792 54.4788 22.8227C55.641 23.7662 56.6468 24.8277 57.4961 26.0071C58.3454 27.1865 58.9824 28.4446 59.407 29.7813C59.8317 31.1179 60.0552 32.5136 60.0775 33.9682H55.7863C55.7863 32.4153 55.451 30.9509 54.7805 29.5749C54.11 28.1989 53.1936 26.9998 52.0314 25.9776C50.8692 24.9555 49.4947 24.1397 47.9078 23.5303C46.3209 22.921 44.6558 22.6261 42.9125 22.6458C41.1245 22.6458 39.4594 22.9406 37.9172 23.5303C36.3751 24.1201 35.0117 24.926 33.8271 25.9482C32.6426 26.9703 31.715 28.1792 31.0445 29.5749C30.374 30.9705 30.0388 32.435 30.0388 33.9682C30.0388 35.7766 29.5806 37.477 28.6642 39.0692C27.7479 40.6614 26.4515 41.9981 24.7753 43.0792ZM34.33 11.3233C34.33 12.3652 34.5535 13.3382 35.0005 14.2424C35.4475 15.1466 36.0622 15.9526 36.8444 16.6602C37.6267 17.3679 38.5319 17.9084 39.56 18.2819C40.5881 18.6554 41.7056 18.852 42.9125 18.8716C44.0971 18.8716 45.2034 18.6751 46.2315 18.2819C47.2596 17.8888 48.176 17.3482 48.9806 16.6602C49.7852 15.9722 50.3999 15.1761 50.8245 14.2719C51.2492 13.3677 51.4727 12.3848 51.495 11.3233C51.495 10.2815 51.2715 9.30851 50.8245 8.40429C50.3775 7.50006 49.7629 6.69413 48.9806 5.98648C48.1984 5.27882 47.2932 4.73826 46.2651 4.36477C45.2369 3.99129 44.1194 3.79472 42.9125 3.77506C41.728 3.77506 40.6216 3.97163 39.5935 4.36477C38.5654 4.75791 37.649 5.29848 36.8444 5.98648C36.0398 6.67447 35.4252 7.47058 35.0005 8.3748C34.5759 9.27902 34.3524 10.2619 34.33 11.3233ZM17.165 41.5165C18.3496 41.5165 19.4559 41.3199 20.484 40.9268C21.5121 40.5336 22.4285 39.9931 23.2331 39.3051C24.0377 38.6171 24.6523 37.821 25.077 36.9168C25.5017 36.0125 25.7252 35.0297 25.7475 33.9682C25.7475 32.9264 25.524 31.9534 25.077 31.0491C24.63 30.1449 24.0154 29.339 23.2331 28.6313C22.4508 27.9237 21.5457 27.3831 20.5175 27.0096C19.4894 26.6361 18.3719 26.4396 17.165 26.4199C15.9804 26.4199 14.8741 26.6165 13.846 27.0096C12.8179 27.4028 11.9015 27.9433 11.0969 28.6313C10.2923 29.3193 9.67767 30.1154 9.25301 31.0197C8.82836 31.9239 8.60485 32.9067 8.5825 33.9682C8.5825 35.01 8.80601 35.983 9.25301 36.8873C9.70002 37.7915 10.3147 38.5974 11.0969 39.3051C11.8792 40.0127 12.7844 40.5533 13.8125 40.9268C14.8406 41.3003 15.9581 41.4968 17.165 41.5165ZM64 50.9518L54.0094 59.7385L51.1598 57.2323L56.1551 52.8389H38.2525L43.2478 57.2617L40.3981 59.7385L30.4075 50.9518L40.3981 42.1652L43.2478 44.642L38.2525 49.0648H56.1551L51.1598 44.6714L54.0094 42.1652L64 50.9518Z" fill="#333333"/>
</svg>
