<svg width="34" height="27" viewBox="0 0 34 27" fill="none" xmlns="http://www.w3.org/2000/svg">
<path d="M0 16.5831C0 22.764 3.95299 26.3068 8.33721 26.3068C12.3621 26.3068 15.812 22.764 15.812 18.3921C15.812 14.171 13.0089 11.382 9.55905 11.382C8.76845 11.382 8.04972 11.5328 7.69036 11.6835C8.6247 8.81918 11.9308 5.50257 14.2308 4.44728L8.98407 0C3.37801 4.14577 0 9.94985 0 16.5831ZM17.7525 16.5831C17.7525 22.764 21.7055 26.3068 26.0897 26.3068C30.1146 26.3068 33.5645 22.764 33.5645 18.3921C33.5645 14.171 30.7614 11.382 27.3116 11.382C26.521 11.382 25.8022 11.5328 25.4429 11.6835C26.3772 8.81918 29.6834 5.50257 31.9833 4.44728L26.7366 0C21.1305 4.14577 17.7525 9.94985 17.7525 16.5831Z" fill="#5C5C5C"/>
</svg>
